# xmcd
#
# Track frame offsets:
#	178
#	29128
#	53600
#	73318
#	96740
#	120875
#	136203
#	164805
#	187170
#	202793
#	219450
#	239345
#
# Disc length: 3463 seconds
#
# Revision: 1
# Processed by: cddbd v1.5.2PL0 Copyright (c) Steve Scherf et al.
# Submitted via: EZCDAudioConverter 9.0.7.1
#
DISCID=b90d850c
DTITLE=Маша Распутина - Я родилась в Сибири
DYEAR=1993
DGENRE=Шансон
TTITLE0=Кружит музыка
TTITLE1=Отпустите меня в Гималаи
TTITLE2=Душа моя беспутная
TTITLE3=Я такой не была
TTITLE4=Шарманщик
TTITLE5=Играй, музыкант
TTITLE6=Я останусь с тобой
TTITLE7=Эх, ма!
TTITLE8=На белом мерседесе
TTITLE9=Я не жалею
TTITLE10=Я родилась в Сибири
TTITLE11=Я такой как ты, не встречу никогда
EXTD=
EXTT0=
EXTT1=
EXTT2=
EXTT3=
EXTT4=
EXTT5=
EXTT6=
EXTT7=
EXTT8=
EXTT9=
EXTT10=
EXTT11=
PLAYORDER=
